<svg xmlns="http://www.w3.org/2000/svg" viewBox="0 0 121.06 57.05"><defs><style>.cls-1{fill:#000100;}.cls-2{fill:#fff;}</style></defs><g id="Layer_2" data-name="Layer 2"><g id="Layer_1-2" data-name="Layer 1"><path class="cls-1" d="M94.66 20.16A7 7 0 0094.37 30a7 7 0 009.88-.29z"/><path class="cls-1" d="M86.16 20.33 70.44 29.39a30.08 30.08.0 00-16.78-5.14c-17.21.0-31.19 14.64-31.47 32.8H20.57L.22 45.21 64.78 7.85z"/><path class="cls-1" d="M64.78 8 .44 45.21 20.79 57.05h1.29a34.25 34.25.0 019.36-23.23 30.52 30.52.0 0122.22-9.68 30.15 30.15.0 0116.78 5.12l15.5-8.93zm0-.25L.16 45.11l-.16.1L20.35 57.05H22.3a0 0 0 010 0c0-.76.05-1.52.11-2.27l.09-1 .09-.72c0-.27.07-.54.12-.8s.08-.53.13-.79.09-.53.15-.79.1-.52.16-.78.15-.63.23-.94.1-.4.16-.6c.12-.48.27-1 .42-1.42.08-.26.17-.51.25-.75l.27-.75.29-.75c.09-.24.2-.49.3-.73a33.43 33.43.0 013.06-5.6c.28-.42.58-.85.89-1.26s.65-.85 1-1.27.69-.8 1-1.19c.18-.2.36-.4.55-.59a30.31 30.31.0 0122.06-9.6c.43.0.87.0 1.3.0.66.0 1.33.07 2 .15s1.45.19 2.17.32l.54.11.59.12c.36.08.72.17 1.07.27.68.18 1.35.38 2 .61.19.07.39.13.58.21l.55.2a29.88 29.88.0 013.88 1.84c.32.18.64.36 1 .56s.63.38.94.59a.78.78.0 01.15.1h.06.06l15.88-9.16z"/><path class="cls-1" d="M70.5 29.3h-.06L22.24 57.05h.45L70.44 29.52A33.56 33.56.0 0185 57.05h.22A33.78 33.78.0 0070.5 29.3z"/><path class="cls-2" d="M70.44 29.39l-48 27.66h-.28c.28-18.16 14.26-32.8 31.47-32.8a30.08 30.08.0 0116.81 5.14z"/><path class="cls-1" d="M70.5 29.3a30.2 30.2.0 00-16.84-5.16 30.52 30.52.0 00-22.22 9.68 34.22 34.22.0 00-9.36 23.23h.6L70.44 29.52h.06l.15-.09zM22.3 57c0-.76.05-1.52.11-2.27l.09-1 .09-.72c0-.27.07-.54.12-.8s.08-.53.13-.79.09-.52.15-.79.11-.52.16-.78.15-.63.23-.94.11-.4.16-.6c.12-.48.27-1 .42-1.42.08-.26.16-.51.25-.75s.17-.51.27-.75.19-.5.29-.75.2-.49.3-.73a33.43 33.43.0 013.06-5.6c.28-.43.58-.85.89-1.26s.65-.85 1-1.27.69-.8 1-1.19c.18-.2.36-.4.55-.59a30.31 30.31.0 0122.06-9.6c.43.0.87.0 1.3.0.67.0 1.33.07 2 .15s1.45.19 2.17.32l.54.11.59.12c.36.08.71.17 1.07.27.68.18 1.35.38 2 .61l.58.21.55.2a29.88 29.88.0 013.88 1.84c.32.18.64.36 1 .56s.63.39.94.59z"/><path class="cls-1" d="M70.3 29.31l48.05 27.74h.88L71.17 29.31 120.62.76V57.05h.44V0z"/><polygon class="cls-1" points="113.03 4.89 120.84 9.4 120.84 0.39 113.03 4.89"/><polygon points="64.58 57.05 120.95 24.4 120.73 24.02 63.72 57.05 64.58 57.05"/><rect class="cls-1" x="99.11" y="14.11" width=".44" height="21.38" transform="translate(11.56 77.5) rotate(-45)"/><rect class="cls-1" x="103.14" y="11.72" width=".44" height="21.26" transform="translate(14.47 79.63) rotate(-45)"/><rect class="cls-1" x="107.25" y="9.46" width=".44" height="21.38" transform="translate(17.23 81.89) rotate(-45)"/><circle class="cls-1" cx="112.49" cy="41.79" r="2.48" transform="translate(-2.84 74.96) rotate(-36.43)"/><path class="cls-1" d="M111.29 39.52A2.56 2.56.0 11110.22 43 2.56 2.56.0 01111.29 39.52zm2.32 4.38a2.39 2.39.0 10-3.24-1A2.39 2.39.0 00113.61 43.9z"/><circle class="cls-1" cx="99.57" cy="36.65" r="1.78"/><path class="cls-1" d="M98.69 35a1.86 1.86.0 11-.77 2.51A1.85 1.85.0 0198.69 35zm1.67 3.14a1.7 1.7.0 10-2.29-.7A1.7 1.7.0 00100.36 38.15z"/></g></g></svg>