<svg xmlns="http://www.w3.org/2000/svg" xmlns:xlink="http://www.w3.org/1999/xlink" width="1819" zoomAndPan="magnify" viewBox="0 0 1364.25 543.75" height="725" preserveAspectRatio="xMidYMid meet" xmlns:v="https://vecta.io/nano"><defs><clipPath id="A"><path d="M54.344 1.57h539.18v539.176H54.344zm0 0" clip-rule="nonzero"/></clipPath><clipPath id="B"><path d="M67 .023h465V461H67zm0 0" clip-rule="nonzero"/></clipPath><path id="C" d="M883.41 461.547v-54.984h9.828v5.109l.734.141c1.164-1.988 2.719-3.484 4.656-4.484 1.938-1.008 4.207-1.516 6.813-1.516 3.145 0 5.891.75 8.234 2.25 2.352 1.492 4.188 3.758 5.5 6.797 1.313 3.031 1.969 6.793 1.969 11.281 0 4.469-.695 8.219-2.078 11.25-1.375 3.023-3.297 5.289-5.766 6.797-2.461 1.5-5.293 2.25-8.5 2.25-2.437 0-4.547-.406-6.328-1.219-1.773-.82-3.273-2.098-4.5-3.828l-.734.141v20.016zm18.656-23.453c2.926 0 5.145-.957 6.656-2.875 1.52-1.914 2.281-4.941 2.281-9.078s-.762-7.164-2.281-9.094c-1.512-1.926-3.73-2.891-6.656-2.891-2.742 0-4.918.996-6.531 2.984-1.605 1.98-2.406 4.98-2.406 9 0 4 .801 6.996 2.406 8.984 1.613 1.98 3.789 2.969 6.531 2.969zm0 0"/><path id="D" d="M989.772 446.438c-2.668 0-5.117-.312-7.344-.937-2.219-.633-4.117-1.5-5.687-2.594-1.574-1.102-2.734-2.363-3.484-3.781l5.453-5.891h.75c1.301 1.75 2.836 3.063 4.609 3.938s3.695 1.313 5.781 1.313c1.914 0 3.359-.336 4.328-1.016.969-.687 1.453-1.672 1.453-2.953a3.36 3.36 0 0 0-1.047-2.5c-.699-.676-1.828-1.203-3.391-1.578l-5.172-1.25c-3.887-.914-6.719-2.328-8.5-4.234s-2.672-4.32-2.672-7.25c0-2.437.617-4.551 1.859-6.344 1.238-1.801 2.988-3.176 5.25-4.125s4.891-1.422 7.891-1.422c3.52 0 6.438.512 8.75 1.531 2.32 1.023 4.133 2.383 5.438 4.078l-5.25 5.672h-.703c-1.094-1.227-2.324-2.125-3.687-2.687-1.355-.57-2.871-.859-4.547-.859-3.875 0-5.812 1.211-5.812 3.625 0 1.023.359 1.852 1.078 2.484s1.988 1.156 3.813 1.563l4.828 1.063c3.969.855 6.867 2.219 8.703 4.094s2.75 4.402 2.75 7.578c0 2.48-.617 4.668-1.844 6.563-1.23 1.887-3.008 3.344-5.328 4.375-2.312 1.031-5.07 1.547-8.266 1.547zm0 0"/><path id="E" d="M1091.957 446.438c-3.836 0-7.199-.785-10.094-2.359s-5.141-3.879-6.734-6.922-2.391-6.711-2.391-11.016.797-7.977 2.391-11.031 3.836-5.363 6.734-6.937 6.258-2.359 10.094-2.359 7.195.789 10.094 2.359 5.145 3.887 6.75 6.938c1.613 3.055 2.422 6.73 2.422 11.031s-.809 7.977-2.422 11.016c-1.605 3.043-3.855 5.352-6.75 6.922s-6.262 2.359-10.094 2.359zm0-8.344c6.07 0 9.109-3.984 9.109-11.953 0-4.133-.781-7.164-2.344-9.094-1.555-1.926-3.809-2.891-6.766-2.891-6.074 0-9.109 3.996-9.109 11.984 0 7.969 3.035 11.953 9.109 11.953zm0 0"/></defs><g clip-path="url(#A)"><path d="M593.523 271.16a271.59 271.59 0 0 1-.324 13.227c-.219 4.406-.543 8.805-.973 13.195s-.973 8.77-1.621 13.133-1.402 8.711-2.262 13.039a274.96 274.96 0 0 1-2.898 12.91 271.36 271.36 0 0 1-3.531 12.754c-1.281 4.219-2.664 8.41-4.148 12.563A268.35 268.35 0 0 1 573 374.328c-1.687 4.074-3.473 8.105-5.359 12.094a271.69 271.69 0 0 1-5.949 11.82 268.91 268.91 0 0 1-6.523 11.512 272.12 272.12 0 0 1-7.078 11.18c-2.453 3.668-4.992 7.277-7.621 10.82s-5.34 7.02-8.141 10.43a270.08 270.08 0 0 1-8.641 10.02c-2.965 3.27-6.004 6.465-9.125 9.586s-6.316 6.16-9.582 9.121-6.609 5.844-10.02 8.645-6.891 5.512-10.434 8.141-7.148 5.168-10.816 7.617a268.08 268.08 0 0 1-11.18 7.082 268.97 268.97 0 0 1-11.516 6.52 267.21 267.21 0 0 1-11.816 5.949c-3.988 1.887-8.023 3.676-12.098 5.363a268.29 268.29 0 0 1-12.348 4.762c-4.152 1.488-8.34 2.871-12.562 4.152s-8.473 2.457-12.754 3.527-8.582 2.039-12.91 2.898-8.672 1.617-13.035 2.262-8.742 1.188-13.133 1.621-8.789.758-13.195.973a266.9 266.9 0 0 1-13.23.324c-4.41 0-8.82-.105-13.227-.324a266.63 266.63 0 0 1-13.199-.973 269.38 269.38 0 0 1-13.129-1.621c-4.367-.645-8.711-1.398-13.039-2.262a265.43 265.43 0 0 1-12.91-2.898c-4.281-1.07-8.531-2.246-12.754-3.527s-8.41-2.664-12.562-4.152a268.29 268.29 0 0 1-12.348-4.762c-4.074-1.687-8.105-3.477-12.098-5.363a267.21 267.21 0 0 1-11.816-5.949c-3.891-2.078-7.73-4.254-11.516-6.52a270.54 270.54 0 0 1-11.176-7.082c-3.672-2.449-7.277-4.988-10.82-7.617a272.54 272.54 0 0 1-10.43-8.141c-3.41-2.801-6.75-5.68-10.02-8.645s-6.465-6.004-9.586-9.121-6.16-6.316-9.121-9.586-5.844-6.609-8.645-10.02-5.512-6.887-8.141-10.43-5.168-7.152-7.621-10.82-4.809-7.395-7.078-11.18-4.441-7.621-6.52-11.512a267.42 267.42 0 0 1-5.953-11.82 271.52 271.52 0 0 1-5.359-12.098c-1.687-4.074-3.277-8.187-4.762-12.344a268.44 268.44 0 0 1-4.152-12.562c-1.281-4.223-2.457-8.473-3.527-12.754s-2.039-8.582-2.902-12.91a272.18 272.18 0 0 1-2.262-13.039 269.52 269.52 0 0 1-1.617-13.133 270.95 270.95 0 0 1-.977-13.195 271.59 271.59 0 0 1-.324-13.227 271.63 271.63 0 0 1 .324-13.23 270.95 270.95 0 0 1 .977-13.195 269.52 269.52 0 0 1 1.617-13.133c.648-4.363 1.402-8.711 2.262-13.035a270.3 270.3 0 0 1 2.902-12.914c1.07-4.277 2.246-8.527 3.527-12.75a268.59 268.59 0 0 1 4.152-12.566c1.484-4.152 3.074-8.27 4.762-12.344a267.15 267.15 0 0 1 5.363-12.098c1.883-3.988 3.867-7.93 5.949-11.82s4.254-7.727 6.52-11.512 4.629-7.512 7.078-11.18 4.992-7.273 7.621-10.816a265.86 265.86 0 0 1 8.141-10.434c2.801-3.41 5.68-6.75 8.645-10.02a270.72 270.72 0 0 1 9.121-9.582c3.121-3.121 6.316-6.16 9.586-9.125a270.08 270.08 0 0 1 10.02-8.641 264.92 264.92 0 0 1 10.43-8.141 267.94 267.94 0 0 1 10.82-7.621c3.668-2.449 7.395-4.812 11.176-7.078s7.625-4.441 11.516-6.523 7.828-4.062 11.816-5.949 8.023-3.672 12.098-5.363a272.86 272.86 0 0 1 12.348-4.762 271.49 271.49 0 0 1 12.563-4.148 271.36 271.36 0 0 1 12.754-3.531 270.11 270.11 0 0 1 12.91-2.898c4.328-.859 8.672-1.613 13.039-2.262a269.38 269.38 0 0 1 13.129-1.621c4.395-.43 8.793-.758 13.199-.973a271.59 271.59 0 0 1 13.227-.324 271.47 271.47 0 0 1 13.227.324c4.41.215 8.809.543 13.199.973s8.766.973 13.133 1.621 8.707 1.402 13.035 2.262 8.633 1.828 12.91 2.898a271.36 271.36 0 0 1 12.754 3.531 271.49 271.49 0 0 1 12.563 4.148 272.86 272.86 0 0 1 12.348 4.762 273.6 273.6 0 0 1 12.098 5.363c3.988 1.887 7.926 3.871 11.816 5.949s7.73 4.254 11.516 6.523 7.512 4.629 11.18 7.078 7.273 4.992 10.816 7.621 7.023 5.34 10.434 8.141a270.08 270.08 0 0 1 10.02 8.641 274.26 274.26 0 0 1 9.582 9.125c3.121 3.121 6.16 6.313 9.125 9.582a270.08 270.08 0 0 1 8.641 10.02 265.86 265.86 0 0 1 8.141 10.434c2.629 3.543 5.168 7.148 7.621 10.816a272.12 272.12 0 0 1 7.078 11.18c2.27 3.785 4.441 7.621 6.523 11.512a271.69 271.69 0 0 1 5.949 11.82c1.887 3.988 3.672 8.02 5.359 12.098a268.2 268.2 0 0 1 4.766 12.344 273.2 273.2 0 0 1 4.148 12.566c1.281 4.223 2.457 8.473 3.531 12.75a275.12 275.12 0 0 1 2.898 12.914c.859 4.324 1.613 8.672 2.262 13.035s1.188 8.742 1.621 13.133.754 8.789.973 13.195a271.63 271.63 0 0 1 .324 13.23zm0 0"/></g><g clip-path="url(#B)"><g fill="#fff"><path d="M291.501 460.856c-53.563 0-99.414-1.398-137.547-4.187-38.125-2.781-67.043-5.457-86.75-8.031l5.781-50.125c11.563 1.711 24.625 3.102 39.188 4.172l48.219 2.891a711.13 711.13 0 0 1 30.203-43.047L178.376-6.378h52.063l11.578 309.766c25.695-25.707 53.648-47.344 83.859-64.906s60.953-26.344 92.234-26.344c23.133 0 43.27 4.824 60.406 14.469 17.133 9.637 30.305 22.594 39.516 38.875 9.219 16.281 13.828 34.703 13.828 55.266 0 25.281-7.391 48.527-22.172 69.734s-39.742 38.242-74.875 51.094-82.906 19.281-143.312 19.281zm122.75-196.031c-19.711 0-39.312 4.934-58.812 14.797-19.492 9.855-38.023 22.281-55.594 37.281-17.562 14.992-33.523 30.625-47.875 46.906s-26.031 30.852-35.031 43.703l41.453.328 44.672.313c56.563 0 100.586-6.961 132.078-20.891s47.234-34.383 47.234-61.375c0-9-2.359-18.211-7.078-27.641-4.711-9.426-11.992-17.352-21.844-23.781s-22.922-9.641-39.203-9.641zm0 0"/></g></g><path d="M739.078 141.913h-54.176l-53.117 148.508h33.359l8.922-24.434h75.848l8.711 24.434h33.566zm-54.602 94.543l23.371-65.223h8.285l23.156 65.223zm167.842-37.605h38.664V171.66h-38.664v-34.418H819.81v34.418h-15.723v27.191h15.723v47.805c0 17.207 0 43.766 32.508 43.766 32.293 0 38.664-2.125 38.664-2.125v-31.441c-31.016 1.699-38.664 4.035-38.664-13.176zm223.503-27.617l-27.621 87.742-27.195-87.742h-31.441l-26.984 87.742-27.617-87.742h-32.508l37.395 119.188h43.766l21.672-70.535 21.883 70.535h43.766l37.391-119.187zm143.195 17.632c-8.074-10.621-21.461-17.633-43.555-17.633-50.352 0-55.664 42.277-55.664 59.699 0 15.934 5.523 59.488 55.453 59.488 22.52 0 36.117-6.16 44.188-16.57h1.063v16.57h32.293V171.234h-32.293v17.633zm-34.207 73.934c-30.805 0-34.207-23.367-34.207-31.867 0-9.348 3.188-31.867 34.207-31.867 27.832 0 33.566 15.723 33.566 31.867 0 18.059-5.734 31.867-33.566 31.867zm148.717-91.566c-20.605 0-27.828 6.16-34.629 17.633h-1.91v-17.633h-32.297v119.188h32.297v-53.328c0-16.145 7.008-34.84 31.016-34.84 10.199 0 18.484 1.699 21.461 2.547l5.098-30.379c-5.523-1.277-12.535-3.187-21.035-3.187zM664.248 445.688h-11.453l-11.875-51.859h10.219l7.828 36.469h.891l9.297-36.469h8.75l9.484 36.469h.875l7.875-36.469h9.859l-11.844 51.859H682.67l-9.094-33.453h-.734zm81.791-17.344h-25.141c.281 3.406 1.25 5.887 2.906 7.438 1.656 1.543 3.914 2.313 6.781 2.313 2.238 0 4.055-.414 5.453-1.25 1.395-.844 2.52-2.113 3.375-3.812h.734l6.531 4.172c-1.273 2.75-3.199 4.98-5.781 6.688-2.574 1.699-6.012 2.547-10.312 2.547-4.055 0-7.555-.766-10.5-2.297-2.937-1.539-5.203-3.832-6.797-6.875s-2.391-6.75-2.391-11.125c0-4.445.836-8.191 2.516-11.234 1.676-3.051 3.941-5.328 6.797-6.828 2.863-1.508 6.082-2.266 9.656-2.266 5.531 0 9.77 1.469 12.719 4.406 2.945 2.93 4.422 7.23 4.422 12.906 0 2.063-.074 3.664-.219 4.797zM737.602 422c-.094-2.977-.789-5.145-2.078-6.5-1.281-1.363-3.168-2.047-5.656-2.047-4.969 0-7.891 2.852-8.766 8.547zm39.651 24.438c-4.992 0-8.703-1.867-11.141-5.609l-.734.141v4.719h-9.828V390.86h9.828v20.313l.734.141c1.352-1.863 2.945-3.242 4.781-4.141 1.832-.906 4.023-1.359 6.578-1.359 3.164 0 5.93.75 8.297 2.25 2.363 1.492 4.207 3.758 5.531 6.797 1.32 3.031 1.984 6.793 1.984 11.281 0 4.449-.687 8.195-2.062 11.234-1.367 3.031-3.258 5.305-5.672 6.813-2.406 1.5-5.172 2.25-8.297 2.25zm-2.969-8.344c2.875 0 5.066-.961 6.578-2.891 1.52-1.926 2.281-4.945 2.281-9.062 0-4.133-.762-7.164-2.281-9.094-1.512-1.926-3.703-2.891-6.578-2.891-2.773 0-4.969.996-6.594 2.984-1.617 1.98-2.422 4.98-2.422 9s.805 7.023 2.422 9c1.625 1.969 3.82 2.953 6.594 2.953zm32.024 15h-9.328l19.328-62.234h9.359zm70.686-7.406h-10.781l-3.906-11.953h-19.859l-3.906 11.953h-10.531l17.906-51.859h13.156zm-25.109-41.031l-6.672 20.453h14.25l-6.703-20.453zm0 0"/><use xlink:href="#C"/><use xlink:href="#C" x="46.853"/><use xlink:href="#D"/><path d="M1047.66 446.438c-3.594 0-6.793-.445-9.594-1.328-2.805-.895-5.141-2.062-7.016-3.5-1.867-1.445-3.293-3.031-4.281-4.75l5.641-6.891h.891c1.551 2.324 3.523 4.172 5.922 5.547 2.406 1.367 5.219 2.047 8.438 2.047 2.738 0 4.805-.578 6.203-1.734s2.094-2.754 2.094-4.797c0-1.227-.227-2.254-.672-3.078s-1.195-1.531-2.234-2.125-2.449-1.102-4.219-1.531l-6.672-1.516c-4.656-1.07-8.125-2.844-10.406-5.312s-3.422-5.676-3.422-9.625c0-2.937.727-5.516 2.188-7.734 1.469-2.219 3.602-3.941 6.406-5.172s6.156-1.844 10.063-1.844c3.988 0 7.41.527 10.266 1.578s5.258 2.664 7.219 4.828l-5.078 6.953h-.875c-1.469-1.531-3.152-2.68-5.047-3.453-1.887-.77-4.047-1.156-6.484-1.156-2.812 0-4.953.5-6.422 1.5-1.469.992-2.203 2.359-2.203 4.109 0 1.637.516 2.938 1.547 3.906s2.813 1.727 5.344 2.266l6.797 1.422c5.039 1.063 8.695 2.867 10.969 5.406s3.406 5.859 3.406 9.953c0 3.242-.699 6.059-2.094 8.453s-3.5 4.262-6.312 5.594c-2.812 1.32-6.266 1.984-10.359 1.984zm0 0"/><use xlink:href="#E"/><path d="M1130.943 446.438c-3.531 0-6.227-.953-8.078-2.859s-2.781-4.797-2.781-8.672V390.86h9.828v43.656c0 2.387.992 3.578 2.984 3.578.563 0 1.16-.094 1.797-.281l.5.141.891 7.563c-.543.281-1.266.504-2.172.672-.898.164-1.887.25-2.969.25zm24.142 0c-4.398 0-7.641-1.195-9.734-3.594-2.094-2.406-3.141-5.852-3.141-10.344v-25.937h9.828v24.688c0 2.387.516 4.133 1.547 5.234 1.031 1.094 2.617 1.641 4.766 1.641 2.719 0 4.832-.891 6.344-2.672 1.52-1.781 2.281-4.586 2.281-8.422v-20.469h9.828v39.125h-9.437v-5.75l-.75-.172c-1.25 2.25-2.781 3.93-4.594 5.031-1.812 1.094-4.125 1.641-6.937 1.641zm54.335-10.078l2.563 7.266c-1.062.875-2.402 1.563-4.016 2.063-1.605.5-3.422.75-5.453.75-4.242 0-7.461-1.148-9.656-3.453-2.199-2.312-3.297-5.664-3.297-10.062V414.33h-5.953v-7.797h5.953v-7.625l9.828-1.594v9.219h11.109v7.797h-11.109v17.875c0 1.949.398 3.367 1.203 4.25s1.973 1.328 3.516 1.328c1.75 0 3.273-.473 4.578-1.422zm13.942-34.469c-1.773 0-3.215-.535-4.328-1.609-1.105-1.082-1.656-2.473-1.656-4.172 0-1.687.551-3.066 1.656-4.141 1.113-1.07 2.555-1.609 4.328-1.609 1.188 0 2.238.25 3.156.75.926.492 1.641 1.168 2.141 2.031.508.867.766 1.855.766 2.969 0 1.105-.258 2.094-.766 2.969-.5.875-1.215 1.563-2.141 2.063-.918.5-1.969.75-3.156.75zm-4.891 43.797v-39.125h9.828v39.125zm0 0"/><use xlink:href="#E" x="164.676"/><path d="M1285.009 445.688v-39.125h9.438v5.75l.734.172c2.438-4.445 6.391-6.672 11.859-6.672 4.508 0 7.82 1.234 9.938 3.703 2.125 2.461 3.188 6.039 3.188 10.734v25.438h-9.828v-24.219c0-2.602-.523-4.477-1.562-5.625s-2.711-1.719-5-1.719c-2.812 0-5.008.914-6.578 2.734-1.574 1.813-2.359 4.672-2.359 8.578v20.25zm0 0"/><use xlink:href="#D" x="353.717"/></svg>