<svg xmlns="http://www.w3.org/2000/svg" viewBox="0 0 201.91 95.15"><defs><style>.cls-1{fill:#000100;}.cls-2{fill:#fff;}</style></defs><g id="Layer_2" data-name="Layer 2"><g id="Layer_1-2" data-name="Layer 1"><path class="cls-1" d="M157.88 33.62c-4.68 4.68-4.9 12.06-.48 16.48s11.8 4.21 16.48-.48z"/><path class="cls-1" d="M143.71 33.9 117.49 49a50.19 50.19.0 00-28-8.57c-28.7.0-52 24.41-52.48 54.7H34.3L.37 75.4 108.05 13.1z"/><path class="cls-1" d="M108.05 13.31.73 75.4 34.67 95.15h2.15A57.08 57.08.0 0152.44 56.41 50.87 50.87.0 0189.49 40.27a50.32 50.32.0 0128 8.54L143.34 33.9zm0-.42L.27 75.24.0 75.4 33.94 95.15h3.25a0 0 0 010-.05c0-1.27.08-2.53.18-3.78.05-.59.1-1.17.16-1.75.0-.41.09-.81.15-1.21s.12-.89.19-1.33.14-.88.22-1.32.16-.88.25-1.31.17-.87.27-1.3.25-1.06.38-1.58c.09-.33.17-.67.27-1 .21-.8.45-1.58.7-2.36.13-.43.28-.85.42-1.26l.45-1.25.48-1.24q.24-.61.51-1.23a55.83 55.83.0 015.09-9.33c.47-.71 1-1.42 1.49-2.11s1.09-1.42 1.66-2.11 1.14-1.34 1.73-2c.3-.33.6-.66.91-1a50.55 50.55.0 0136.79-16c.73.0 1.46.0 2.18.0 1.1.05 2.21.13 3.3.25s2.42.32 3.61.54l.9.18 1 .21c.6.13 1.2.28 1.79.44q1.69.45 3.36 1c.32.11.65.22 1 .35s.61.22.92.34A49.09 49.09.0 01114 47.09c.53.29 1.06.6 1.58.92s1.05.65 1.57 1l.25.16.09.07.1-.06 26.49-15.27z"/><path class="cls-1" d="M117.59 48.87l-.1-.06L37.1 95.15h.74l79.64-45.91c15 10.07 24 27.17 24.31 45.91h.36C141.87 76.25 132.73 59 117.59 48.87z"/><path class="cls-2" d="M117.49 49l-80 46.13H37c.46-30.29 23.78-54.7 52.48-54.7A50.19 50.19.0 01117.49 49z"/><path class="cls-1" d="M117.59 48.87a50.34 50.34.0 00-28.1-8.6 50.87 50.87.0 00-37 16.14A57 57 0 0036.83 95.15h1l79.65-45.91.1-.06.25-.15zM37.19 95.1q0-1.91.18-3.78c.05-.59.1-1.17.16-1.75l.15-1.21c.06-.45.12-.89.19-1.33s.14-.88.22-1.32.16-.87.25-1.31l.27-1.3c.12-.53.25-1.06.38-1.58l.27-1c.21-.8.45-1.58.7-2.36q.2-.64.42-1.26c.14-.42.29-.84.45-1.25s.31-.83.48-1.24.33-.83.51-1.23a55.83 55.83.0 015.09-9.33c.48-.72 1-1.42 1.49-2.11s1.09-1.42 1.66-2.11 1.14-1.34 1.73-2c.3-.33.6-.66.91-1a50.55 50.55.0 0136.79-16c.73.0 1.46.0 2.18.0 1.11.05 2.21.13 3.3.25s2.42.32 3.61.54l.9.18 1 .21c.6.13 1.19.28 1.79.44q1.69.45 3.36 1l1 .35.92.34A49.09 49.09.0 01114 47.09c.53.29 1.06.6 1.58.92l1.57 1z"/><path class="cls-1" d="M117.25 48.88l80.14 46.27h1.47L118.71 48.88 201.18 1.26V95.15h.73V0z"/><polygon class="cls-1" points="188.53 8.16 201.54 15.68 201.54 0.65 188.53 8.16"/><polygon points="107.72 95.15 201.73 40.7 201.36 40.07 106.27 95.15 107.72 95.15"/><rect class="cls-1" x="165.31" y="23.53" width=".73" height="35.65" transform="translate(19.28 129.26) rotate(-45)"/><rect class="cls-1" x="172.02" y="19.54" width=".73" height="35.46" transform="translate(24.14 132.81) rotate(-45)"/><rect class="cls-1" x="178.88" y="15.77" width=".73" height="35.65" transform="translate(28.74 136.59) rotate(-45)"/><circle class="cls-1" cx="187.62" cy="69.7" r="4.13" transform="translate(-4.73 125.02) rotate(-36.43)"/><path class="cls-1" d="M185.61 65.92a4.27 4.27.0 11-1.77 5.78A4.28 4.28.0 01185.61 65.92zm3.88 7.3a4 4 0 10-5.4-1.65A4 4 0 00189.49 73.22z"/><circle class="cls-1" cx="166.07" cy="61.13" r="2.97"/><path class="cls-1" d="M164.61 58.38a3.11 3.11.0 11-1.29 4.21A3.12 3.12.0 01164.61 58.38zm2.78 5.25a2.83 2.83.0 10-3.82-1.18A2.83 2.83.0 00167.39 63.63z"/></g></g></svg>