<svg xmlns="http://www.w3.org/2000/svg" viewBox="0 0 126.74 82.66"><defs><style>.cls-1{fill:#fff;}.cls-2{font-size:51.75px;font-family:BahijTheSansArabic-ExtraBold, Bahij TheSansArabic;font-weight:800;}</style></defs><g id="Layer_2" data-name="Layer 2"><g id="Layer_1-2" data-name="Layer 1"><path class="cls-1" d="M126.74 27.3h0A93.26 93.26.0 01109 82.66h-1.7a92 92 0 0018-54.55L30.83 82.66H28.12l97.21-56.11v0L59 27.83a16.51 16.51.0 01-32.66.63L0 29V27.64l26.12-.51c0-.46-.07-.92-.07-1.39a16.53 16.53.0 0133.05.0c0 .25.0.5.0.75l67.65-1.32v.67V27.3z"/><path class="cls-1" d="M30.83 82.66h76.49a91.9 91.9.0 0018-54.55z"/><text class="cls-2" transform="translate(41.24 46.78) rotate(-28.66)">P</text></g></g></svg>