<svg xmlns="http://www.w3.org/2000/svg" viewBox="0 0 405.9 405.9"><defs><style>.cls-1{fill:#fff;}.cls-2{fill:none;stroke:#fff;stroke-miterlimit:10;opacity:0.1;}</style></defs><g id="Layer_2" data-name="Layer 2"><g id="Layer_1-2" data-name="Layer 1"><circle class="cls-1" cx="202.95" cy="202.95" r="158.11"/><circle class="cls-2" cx="202.95" cy="202.95" r="180.32"/><circle class="cls-2" cx="202.95" cy="202.95" r="202.45"/><path d="M178.48 186.06q0 32.7-33.47 32.7-31.24.0-31.24-29.32V136.71H129.3v51.74q0 8.42 3.39 12.5 4 4.85 13.38 4.85 9 0 13-4.21t4-14.54V136.71h15.42z"/><path d="M195.18 217.42V136.71h15.54v80.71z"/><path d="M292.13 186.06q0 32.7-33.47 32.7-31.25.0-31.24-29.32V136.71H243v51.74q0 8.42 3.39 12.5 4 4.85 13.37 4.85 9.06.0 13-4.21t4-14.54V136.71h15.42z"/><path d="M202.66 292.68a81.37 81.37.0 01-33.37-7.12 82.32 82.32.0 01-34.11-28.41l12.36-8.51a67.27 67.27.0 00110 1.09l12.16 8.78A82.81 82.81.0 01202.66 292.68z"/></g></g></svg>